<?xml version="1.0" encoding="UTF-8" standalone="no"?>
<!-- Created with Inkscape (http://www.inkscape.org/) -->

<svg
   version="1.1"
   id="svg2"
   xml:space="preserve"
   width="326.66666"
   height="53.333332"
   viewBox="0 0 326.66666 53.333332"
   sodipodi:docname="b.svg"
   inkscape:version="1.1.1 (1:1.1+202109281949+c3084ef5ed)"
   xmlns:inkscape="http://www.inkscape.org/namespaces/inkscape"
   xmlns:sodipodi="http://sodipodi.sourceforge.net/DTD/sodipodi-0.dtd"
   xmlns="http://www.w3.org/2000/svg"
   xmlns:svg="http://www.w3.org/2000/svg"><defs
     id="defs6"><clipPath
       clipPathUnits="userSpaceOnUse"
       id="clipPath18"><path
         d="M 2.89063,5.75 H 2441.3306 V 396.41 H 2.89063 Z"
         id="path16" /></clipPath></defs><sodipodi:namedview
     id="namedview4"
     pagecolor="#ffffff"
     bordercolor="#666666"
     borderopacity="1.0"
     inkscape:pageshadow="2"
     inkscape:pageopacity="0.0"
     inkscape:pagecheckerboard="false"
     showgrid="false"
     inkscape:zoom="3.6841707"
     inkscape:cx="184.57342"
     inkscape:cy="33.657506"
     inkscape:window-width="1920"
     inkscape:window-height="1007"
     inkscape:window-x="0"
     inkscape:window-y="42"
     inkscape:window-maximized="1"
     inkscape:current-layer="g14" /><g
     id="g8"
     inkscape:groupmode="layer"
     inkscape:label="ink_ext_XXXXXX"
     transform="matrix(1.3333333,0,0,-1.3333333,0,53.333333)"><g
       id="g10"
       transform="scale(0.1)"><g
         id="g12"><g
           id="g14"
           clip-path="url(#clipPath18)"><g
             id="g52"
             transform="translate(3.8704337,-8.2133969)"><path
               d="m 256.559,303.012 v 30.386 h -99.411 v 44.653 H 126.41 V 333.398 H 26.9883 V 303.012 H 67.1094 L 122.66,198.359 71.6406,101.949 H 23.5898 L 40.1211,71.1719 H 90 l 52.148,97.9301 52.153,-97.9301 h 62.258 v 30.7771 h -43.86 l -51.41,96.762 55.512,104.301 z M 141.41,227.23 101.25,303.012 h 80.66 z"
               style="fill:#ffffff;fill-opacity:1;fill-rule:nonzero;stroke:none"
               id="path22" /><path
               d="M 482.422,378.051 H 455.391 V 362.66 H 428.75 v 15.391 H 401.762 V 362.66 H 318.09 v -25.512 h 83.672 v -15.386 h 26.988 v 15.386 h 26.641 v -15.386 h 27.031 v 15.386 h 83.277 V 362.66 H 482.422 Z M 323.711,258.359 334.219,238.871 h 29.261 v 26.988 h 31.911 v -24.73 h 41.25 v 18.012 h -19.493 v 6.718 h 24.372 v 20.27 h -50.27 v 9.383 h 34.879 v 20.269 H 391.25 V 328.52 H 368.359 V 315.781 H 333.48 v -20.269 h 34.879 v -9.383 H 318.09 v -20.27 h 23.629 v -7.5 z m 214.609,-56.25 v 108.789 h -24.41 v 16.133 H 489.18 V 310.512 H 443.012 V 283.52 h 37.148 l -9.769,-18.399 -1.871,3.399 h -25.508 l 14.648,-27.391 -22.148,-41.289 13.898,-25.5 21.762,40.89 18.75,-34.878 12.738,23.988 -18.75,34.922 23.629,44.258 h 5.621 V 176.602 h 52.539 v 60 h -20.66 V 202.109 Z M 391.25,197.23 v 16.129 h 36.762 v 20.27 H 391.25 v 23.641 h -22.5 v -23.641 h -45.391 v -20.27 H 368.75 V 197.23 h -50.27 l 11.25,-21.019 h 85.54 l 15.75,30 h -24.379 l -4.879,-8.981 z M 525.16,169.84 H 358.59 V 146.5587 H 525.16 Z M 370.23,116.949 345.859,71.1719 H 537.93 L 516.91,110.59 h -33 l 7.5,-13.9103 h -99.031 l 10.859,20.2693 h 162.461 v 23.25 H 318.48 v -23.25 z"
               style="fill:#ffffff;fill-opacity:1;fill-rule:nonzero;stroke:none"
               id="path24" /><path
               d="m 702.23,341.289 v 36.762 h -30 V 341.289 H 630.59 V 313.52 h 113.281 v 27.769 z m 158.321,30.742 H 751.41 V 71.1719 h 29.25 V 271.48 l 46.531,-87.769 v -64.883 h -33.05 l 15.39,-29.2577 h 46.918 V 189.34 l -46.527,87.808 z M 780.66,343.52 h 32.27 l -32.27,-60.75 z m -72.769,-35.629 -32.27,-61.129 H 627.23 V 218.98 h 120.04 v 27.782 H 704.879 L 737.5,307.891 Z M 684.262,276.02 667.34,307.891 h -30 l 31.879,-59.653 z M 736.02,198.711 H 638.48 V 71.1719 h 97.54 z m -68.29,-28.512 h 39.0313 V 99.6912 H 667.73 Z"
               style="fill:#ffffff;fill-opacity:1;fill-rule:nonzero;stroke:none"
               id="path26" /><path
               d="M 974.449,351.41 H 943.711 V 93.3203 h 105.039 v 30.7387 h -74.301 z"
               style="fill:#ffffff;fill-opacity:1;fill-rule:nonzero;stroke:none"
               id="path28" /><path
               d="m 1053.79,339.41 c -18.28,-34.879 -42.23,-66.09 -42.23,-110.859 V 142.77 h 23.09 v 52.308 h 46.72 V 142.77 h 23.04 v 85.781 c 0,44.179 -24.45,76.527 -42.18,110.859 z m -19.14,-110.859 c 0,24.5 5.9,43.359 19.96,68.949 1.72,3.359 2.81,5.078 3.4,7.301 1.13,-3.082 2.54,-5.352 3.36,-7.301 12.97,-23.629 20,-41.641 20,-68.949 V 218.16 h -46.72 z"
               style="fill:#ffffff;fill-opacity:1;fill-rule:nonzero;stroke:none"
               id="path30" /><path
               d="m 1104.88,351.41 v -30.75 h 49.14 V 93.3203 h 30.78 V 320.66 h 49.15 v 30.75 z"
               style="fill:#ffffff;fill-opacity:1;fill-rule:nonzero;stroke:none"
               id="path32" /><path
               d="M 1323.91,291.41 H 1218.87 V 33.3203 h 105.04 v 30.7383 h -74.3 v 90.0434 h 61.17 v 30.777 h -61.17 v 75.781 h 74.3 z"
               style="fill:#ffffff;fill-opacity:1;fill-rule:nonzero;stroke:none"
               id="path34" /><path
               d="m 1353.52,93.3203 48.39,100.1597 c 0.75,2.258 1.14,3.75 1.49,3.75 0,-0.39 0.74,-2.269 1.52,-3.75 0,-0.75 49.49,-100.1597 49.49,-100.1597 h 34.93 l -69.81,135.0387 64.14,123.051 h -35.62 l -36.02,-75.789 c -3.01,-6.012 -6.37,-13.512 -7.5,-17.262 -1.13,4.141 -3.75,9.762 -7.11,16.52 l -38.28,76.531 h -34.88 l 63.79,-123.051 -70.16,-135.0387 z"
               style="fill:#ffffff;fill-opacity:1;fill-rule:nonzero;stroke:none"
               id="path36" /><path
               d="m 1769.84,253.871 v 82.149 h 15.75 v 30.031 H 1673.05 V 336.02 h 15.39 v -82.149 h -23.64 v -30 h 23.64 V 101.172 h -22.54 l 15.39,-28.4728 h 37.15 V 223.871 h 21.36 V 71.1719 h 30.04 V 223.871 h 23.99 v 30 z m -151.21,13.859 33.4,62.661 h 17.62 v 28.519 h -105.39 v -28.519 h 55.12 L 1560.51,219.73 h -4.53 l 15.04,-28.519 h 7.1 l 11.26,21.41 V 91.8008 h 70.15 V 267.73 Z m 99.81,68.29 h 21.3594 V 253.8716 H 1718.44 Z m -101.29,-95.668 h 14.2617 V 119.18 H 1617.15 Z"
               style="fill:#ffffff;fill-opacity:1;fill-rule:nonzero;stroke:none"
               id="path38" /><path
               d="m 2058.32,328.16 v -30.039 h 30 v 60.039 h -94.14 v 19.891 h -30.04 V 358.16 H 1870 v -63.781 h 30 v 33.781 z m -175.2,-97.539 h 45.4 l 47.65,89.258 h -33.4 l -31.52,-59.258 h -43.87 z m 102.78,9.731 h 93.44 v 50.668 h -29.26 v -21.411 h -34.92 v 50.27 h -29.26 z m 82.54,-138.403 h -22.89 v 112.539 h -64.53 v 40.121 h -30 v -40.121 h -68.29 v -30.039 h 59.3 l -44.3,-83.277 h -35.23 l 15.74,-30.0001 h 38.28 l 60,113.2771 h 38.28 V 71.1719 h 82.15 v 64.1371 h -28.51 z"
               style="fill:#ffffff;fill-opacity:1;fill-rule:nonzero;stroke:none"
               id="path40" /><path
               d="M 2279.26,384.059 2225.27,281.988 H 2160 l 16.09,-30 h 67.54 l 35.63,66.801 35.66,-66.801 h 79.14 v 30 h -60.39 z M 2212.89,213.75 h 133.16 v 28.4805 h -133.16 z m 22.85,-47.66 -50.23,-94.9181 h 195.04 l -43.13,81.4061 h -34.88 l 27.38,-51.406 h -94.53 l 34.49,64.918 h 124.18 v 29.262 H 2164.84 V 166.09 Z"
               style="fill:#ffffff;fill-opacity:1;fill-rule:nonzero;stroke:none"
               id="path42" /></g></g></g></g></g></svg>
